<svg xmlns="http://www.w3.org/2000/svg" viewBox="0 0 72 72">
    <path fill="#f8f9fa" d="m65.720421,55.258928c0.597458,-1.194787 1.194916,-2.090878 1.792375,-3.285666c0.298729,-0.298697 0.298729,-0.597394 0.298729,-0.896091c0.298729,-0.896091 0.896188,-1.792181 1.194917,-2.688272c0.298729,-0.298697 0.298729,-0.597394 0.298729,-1.194788c0.298729,-0.896091 0.597458,-1.792181 0.896188,-2.389575c0,-0.298697 0.298729,-0.896091 0.298729,-1.194788c0.298729,-0.896091 0.298729,-1.792181 0.597459,-2.688272c0,-0.298696 0.298729,-0.896091 0.298729,-1.194787c0.298729,-1.194788 0.298729,-2.688272 0.298729,-3.88306c0,-19.713996 -16.131376,-35.843629 -35.847502,-35.843629s-35.847502,16.129633 -35.847502,35.843629c0,1.194788 0,2.688272 0.298729,3.88306c0,0.298696 0,0.896091 0.298729,1.194787c0,0.896091 0.298729,1.792181 0.298729,2.688272c0,0.298697 0.298729,0.896091 0.298729,1.194788c0.298729,0.896091 0.597458,1.792181 0.896188,2.389575c0,0.298697 0.298729,0.597394 0.298729,1.194788c0.298729,0.896091 0.597459,1.792181 1.194917,2.688272c0,0.298697 0.298729,0.597394 0.298729,0.896091c0.597458,1.194788 1.194916,2.090879 1.792375,3.285666c6.273313,9.856998 17.326292,16.42833 29.872918,16.42833s23.599606,-6.571332 30.171648,-16.42833c-0.298729,0 -0.298729,0 0,0zm-30.171648,-38.233204c7.1695,0 13.144085,5.973938 13.144085,13.142664c0,7.168726 -5.974584,13.142665 -13.144085,13.142665s-13.144084,-5.973939 -13.144084,-13.142665c0,-7.168726 5.974583,-13.142664 13.144084,-13.142664zm-21.80723,41.220174c3.883479,-8.66221 12.247896,-14.337452 21.80723,-14.337452s17.923751,5.675242 21.807231,14.337452c-5.675855,5.376544 -13.442813,8.960907 -21.807231,8.960907c-8.364417,-0.298697 -16.131376,-3.584363 -21.80723,-8.960907z"/>
</svg>