<svg xmlns="http://www.w3.org/2000/svg" id="图层_1" viewBox="0 0 612 612">
	<path fill="#fff" d="M510 6c25.5 0 49.6 10 67.8 28.2S606 76.5 606 102v408c0 25.5-10 49.6-28.2 67.8S535.5 606 510 606H102c-25.5 0-49.6-10-67.8-28.2S6 535.5 6 510V102c0-25.5 10-49.6 28.2-67.8S76.5 6 102 6h408m0-6H102C45.9 0 0 45.9 0 102v408c0 56.1 45.9 102 102 102h408c56.1 0 102-45.9 102-102V102C612 45.9 566.1 0 510 0z" class="st0"/>
	<path fill="#fff" d="M476 506h-74.8L288.8 332.8h-81.1v173.1H136V106h155.9c49.9 0 90.5 9 121.6 26.9 31.2 18 46.8 47.2 46.8 87.7 0 31.2-10.5 55.4-31.2 72.6-20.9 17.2-44.7 28-71.7 32.7L476 506zm-87.4-285.4c0-21.9-8.9-38.9-26.5-51.5-17.7-12.5-46.3-18.8-85.8-18.8h-68.6v138H295c24.9 0 46.8-5.1 65.5-15.2 18.8-10 28.1-27.5 28.1-52.5z" class="st0"/>
</svg>