<svg xmlns="http://www.w3.org/2000/svg" viewBox="0 0 612 612">
    <path fill="#fff" d="M510 0H102C45.9 0 0 45.9 0 102v408c0 56.1 45.9 102 102 102h408c56.1 0 102-45.9 102-102V102C612 45.9 566.1 0 510 0zm-35 506h-74.8L287.8 332.8h-81.1v173.1H135V106h155.9c49.9 0 90.5 9 121.6 26.9 31.2 18 46.8 47.2 46.8 87.7 0 31.2-10.5 55.4-31.2 72.6-20.9 17.2-44.7 28-71.7 32.7L475 506zm-87.4-285.4c0-21.9-8.9-38.9-26.5-51.5-17.7-12.5-46.3-18.8-85.8-18.8h-68.6v138H294c24.9 0 46.8-5.1 65.5-15.2 18.8-10 28.1-27.5 28.1-52.5z"/>
</svg>